{
	"asset":{
		"generator":"Khronos glTF Blender I/O v4.0.44",
		"version":"2.0"
	},
	"extensionsUsed":[
		"KHR_materials_unlit",
		"EXT_texture_webp"
	],
	"scene":0,
	"scenes":[
		{
			"name":"Scene",
			"nodes":[
				0
			]
		}
	],
	"nodes":[
		{
			"mesh":0,
			"name":"Plane.010",
			"translation":[
				0,
				0,
				10
			]
		}
	],
	"materials":[
		{
			"doubleSided":true,
			"extensions":{
				"KHR_materials_unlit":{}
			},
			"name":"Material.001",
			"pbrMetallicRoughness":{
				"baseColorTexture":{
					"index":0
				},
				"metallicFactor":0,
				"roughnessFactor":0.9
			}
		}
	],
	"meshes":[
		{
			"name":"Plane.012",
			"primitives":[
				{
					"attributes":{
						"POSITION":0,
						"NORMAL":1,
						"TEXCOORD_0":2,
						"TEXCOORD_1":3
					},
					"indices":4,
					"material":0
				}
			]
		}
	],
	"textures":[
		{
			"extensions":{
				"EXT_texture_webp":{
					"source":0
				}
			},
			"sampler":0,
			"source":1
		}
	],
	"images":[
			{
			"mimeType":"image/png",
			"name":"dungeonLit.png",
			"uri":"dungeonLit.png"
		},
		{
			"mimeType":"image/png",
			"name":"dungeon.png",
			"uri":"dungeon.png"
		}
	],
	"accessors":[
		{
			"bufferView":0,
			"componentType":5126,
			"count":13106,
			"max":[
				5.000009059906006,
				10.470943450927734,
				21.85441017150879
			],
			"min":[
				-5.000000953674316,
				-0.02542496658861637,
				-31.85441017150879
			],
			"type":"VEC3"
		},
		{
			"bufferView":1,
			"componentType":5126,
			"count":13106,
			"type":"VEC3"
		},
		{
			"bufferView":2,
			"componentType":5126,
			"count":13106,
			"type":"VEC2"
		},
		{
			"bufferView":3,
			"componentType":5126,
			"count":13106,
			"type":"VEC2"
		},
		{
			"bufferView":4,
			"componentType":5123,
			"count":21798,
			"type":"SCALAR"
		}
	],
	"bufferViews":[
		{
			"buffer":0,
			"byteLength":157272,
			"byteOffset":0,
			"target":34962
		},
		{
			"buffer":0,
			"byteLength":157272,
			"byteOffset":157272,
			"target":34962
		},
		{
			"buffer":0,
			"byteLength":104848,
			"byteOffset":314544,
			"target":34962
		},
		{
			"buffer":0,
			"byteLength":104848,
			"byteOffset":419392,
			"target":34962
		},
		{
			"buffer":0,
			"byteLength":43596,
			"byteOffset":524240,
			"target":34963
		}
	],
	"samplers":[
		{
			"magFilter":9728,
			"minFilter":9984
		}
	],
	"buffers":[
		{
			"byteLength":567836,
			"uri":"dungeon.bin"
		}
	]
}
